<?xml version="1.0" standalone="no"?>
<!DOCTYPE svg PUBLIC "-//W3C//DTD SVG 20010904//EN"
 "http://www.w3.org/TR/2001/REC-SVG-20010904/DTD/svg10.dtd">
<svg version="1.0" xmlns="http://www.w3.org/2000/svg"
 width="700.000000pt" height="700.000000pt" viewBox="0 0 700.000000 700.000000"
 preserveAspectRatio="xMidYMid meet">
<metadata>
Created by potrace 1.11, written by Peter Selinger 2001-2013
</metadata>
<g transform="translate(0.000000,700.000000) scale(0.100000,-0.100000)"
fill="#000000" stroke="none">
<path d="M822 5560 c-200 -53 -355 -208 -406 -407 -15 -55 -16 -169 -16 -982
l1 -921 -39 -49 c-55 -70 -124 -208 -167 -336 l-37 -110 -19 -415 c-11 -228
-20 -523 -22 -656 l-2 -240 27 -36 c15 -20 48 -50 74 -67 l47 -31 1012 0 c556
0 2018 3 3248 7 l2237 6 61 111 61 111 -6 310 c-9 447 -26 663 -70 870 -50
235 -87 339 -155 440 -28 41 -29 47 -18 82 9 28 12 276 12 948 0 855 -1 914
-18 970 -62 201 -230 359 -424 400 -58 13 -452 15 -2688 14 -2547 0 -2622 -1
-2693 -19z m5344 -285 c64 -19 127 -73 162 -139 l27 -51 0 -890 0 -890 -27
-51 c-15 -29 -46 -68 -70 -88 -83 -71 138 -66 -2758 -64 l-2615 3 -54 30 c-56
31 -106 88 -128 148 -16 45 -18 1769 -1 1818 18 53 64 115 104 140 83 51 -70
48 2710 49 2266 0 2607 -2 2650 -15z m-2232 -2514 c24 -22 26 -32 26 -101 0
-69 -2 -79 -26 -101 l-26 -24 -391 -3 c-216 -2 -407 0 -425 3 -56 10 -72 38
-72 125 0 67 3 79 23 97 12 11 29 23 37 26 8 3 198 5 422 4 l406 -2 26 -24z
m-841 -453 c38 -20 46 -40 47 -116 0 -64 -3 -76 -25 -97 l-24 -25 -1375 0
c-756 0 -1382 3 -1391 6 -27 11 -45 60 -45 124 0 55 3 65 29 91 l29 29 1367 0
c1020 0 1372 -3 1388 -12z m3588 -14 c21 -22 24 -35 24 -101 0 -70 -2 -76 -28
-99 l-28 -24 -1375 0 -1375 0 -24 25 c-22 21 -25 33 -25 101 0 66 3 81 22 101
l21 23 1382 0 1382 0 24 -26z m-4630 -414 c98 -50 118 -183 40 -261 -90 -90
-229 -63 -276 53 -57 143 97 278 236 208z m3083 -14 c49 -37 68 -68 73 -120 8
-63 -26 -128 -81 -161 -50 -29 -130 -34 -175 -11 -42 22 -89 81 -97 122 -13
70 30 153 98 188 50 26 136 17 182 -18z m-470 -25 c23 -22 26 -32 26 -97 0
-40 -3 -80 -6 -89 -15 -37 -56 -45 -244 -45 l-182 0 -29 29 c-26 27 -29 35
-29 99 0 76 20 116 63 125 12 3 102 4 199 4 172 -2 177 -3 202 -26z m2015 14
c37 -18 41 -31 41 -121 0 -80 -14 -107 -62 -119 -13 -3 -154 -5 -315 -3 l-291
3 -26 24 c-24 22 -26 32 -26 101 0 67 3 79 23 97 12 11 29 23 37 26 8 3 145 6
303 6 234 1 293 -2 316 -14z m-5068 -8 c27 -21 39 -54 39 -112 0 -59 -19 -109
-45 -119 -9 -3 -103 -6 -209 -6 l-193 0 -24 26 c-21 22 -24 35 -24 101 0 70 2
76 28 99 28 24 31 24 220 24 135 -1 197 -4 208 -13z m1118 -2 c48 -25 66 -119
37 -190 -21 -50 -58 -57 -264 -53 l-174 3 -24 28 c-20 24 -24 39 -24 95 0 73
15 107 54 122 11 5 99 9 194 9 134 1 179 -2 201 -14z m1220 -11 c30 -25 31
-29 31 -103 0 -70 -2 -80 -26 -102 l-26 -24 -418 0 -418 0 -26 24 c-24 22 -26
32 -26 100 1 78 8 98 45 119 14 8 140 11 427 12 l406 0 31 -26z m1834 14 c38
-20 46 -40 47 -119 0 -68 -2 -78 -26 -100 -25 -24 -28 -24 -221 -24 l-195 0
-24 28 c-21 24 -24 38 -24 102 0 70 2 75 31 99 30 26 31 26 210 26 118 0 188
-4 202 -12z m-4821 -28 c29 -30 30 -33 26 -106 -6 -120 13 -114 -363 -114
-376 0 -357 -6 -363 114 -4 73 -3 76 26 106 l30 30 307 0 307 0 30 -30z"/>
<path d="M1288 4821 c-123 -32 -216 -117 -277 -252 -108 -242 -102 -680 14
-908 63 -126 186 -213 322 -230 262 -33 447 99 523 371 33 117 46 305 32 456
-30 326 -147 512 -357 566 -77 21 -173 19 -257 -3z m237 -150 c128 -58 187
-225 189 -531 1 -301 -51 -466 -172 -537 -40 -24 -58 -28 -122 -28 -51 0 -85
6 -106 17 -84 45 -141 144 -168 287 -18 95 -22 379 -6 476 25 156 86 268 169
312 56 29 156 31 216 4z"/>
<path d="M2535 4826 c-167 -40 -282 -175 -338 -394 -30 -120 -32 -463 -3 -587
36 -155 110 -282 202 -345 169 -117 434 -94 574 50 105 108 158 273 167 523
11 297 -40 499 -160 633 -100 111 -279 160 -442 120z m220 -155 c49 -22 107
-84 133 -144 44 -99 57 -190 57 -397 0 -217 -13 -298 -64 -406 -75 -159 -259
-204 -385 -93 -86 76 -126 209 -133 449 -14 407 84 611 291 610 37 0 77 -8
101 -19z"/>
<path d="M4380 4834 c-82 -16 -164 -36 -225 -57 l-70 -24 -3 -91 c-1 -51 -1
-92 1 -92 2 0 39 16 81 36 110 50 212 74 315 73 97 -1 130 -10 194 -55 59 -42
87 -101 87 -185 0 -131 -42 -188 -414 -559 l-276 -275 0 -77 0 -78 445 0 445
0 0 80 0 80 -327 0 -327 0 265 268 c338 340 381 404 383 567 2 235 -164 381
-444 390 -58 2 -116 2 -130 -1z"/>
<path d="M5623 4825 c-278 -60 -414 -359 -302 -661 31 -82 131 -182 212 -213
184 -68 369 -41 485 72 l42 41 0 -39 c0 -58 -36 -197 -65 -255 -34 -68 -95
-126 -164 -159 -51 -24 -66 -26 -176 -25 -103 1 -130 4 -195 27 -41 15 -78 27
-82 27 -5 0 -8 -36 -8 -80 l0 -79 66 -21 c149 -46 326 -45 450 1 153 58 280
210 334 401 43 151 43 415 -1 582 -78 302 -301 445 -596 381z m255 -161 c93
-46 141 -127 149 -253 10 -147 -35 -256 -130 -315 -63 -38 -173 -48 -244 -21
-117 45 -176 145 -176 300 0 114 25 183 86 244 55 53 102 70 193 71 56 0 80
-5 122 -26z"/>
<path d="M3500 4305 l0 -115 100 0 100 0 0 115 0 115 -100 0 -100 0 0 -115z"/>
<path d="M3500 3565 l0 -115 100 0 100 0 0 115 0 115 -100 0 -100 0 0 -115z"/>
</g>
</svg>
